<svg xmlns="http://www.w3.org/2000/svg" xmlns:xlink="http://www.w3.org/1999/xlink" width="892" zoomAndPan="magnify" viewBox="0 0 669 97.5" height="130" preserveAspectRatio="xMidYMid meet" version="1.0"><defs><filter x="0%" y="0%" width="100%" height="100%" id="fa7572d400"><feColorMatrix values="0 0 0 0 1 0 0 0 0 1 0 0 0 0 1 0 0 0 1 0" color-interpolation-filters="sRGB"/></filter><g/><clipPath id="ccf73044ee"><path d="M 1.707031 0 L 667.292969 0 L 667.292969 97.003906 L 1.707031 97.003906 Z M 1.707031 0 " clip-rule="nonzero"/></clipPath><clipPath id="c93aa0a477"><path d="M 0.707031 0 L 666.292969 0 L 666.292969 97.003906 L 0.707031 97.003906 Z M 0.707031 0 " clip-rule="nonzero"/></clipPath><clipPath id="9be8f92eb4"><path d="M 0.707031 0 L 666.292969 0 L 666.292969 97.003906 L 0.707031 97.003906 Z M 0.707031 0 " clip-rule="nonzero"/></clipPath><linearGradient x1="433" gradientTransform="matrix(0.74617, 0, 0, 0.745383, 10.408359, 16.44901)" y1="-22.067858" x2="433" gradientUnits="userSpaceOnUse" y2="108.069992" id="8ca43ef9b9"><stop stop-opacity="1" stop-color="rgb(87.449646%, 46.269226%, 29.798889%)" offset="0"/><stop stop-opacity="1" stop-color="rgb(87.449646%, 46.269226%, 29.798889%)" offset="0.125"/><stop stop-opacity="1" stop-color="rgb(87.449646%, 46.269226%, 29.798889%)" offset="0.1875"/><stop stop-opacity="1" stop-color="rgb(87.449646%, 46.269226%, 29.798889%)" offset="0.21875"/><stop stop-opacity="1" stop-color="rgb(87.385559%, 46.180725%, 29.789734%)" offset="0.226562"/><stop stop-opacity="1" stop-color="rgb(87.168884%, 45.875549%, 29.75769%)" offset="0.230469"/><stop stop-opacity="1" stop-color="rgb(87.016296%, 45.658875%, 29.734802%)" offset="0.234375"/><stop stop-opacity="1" stop-color="rgb(86.862183%, 45.4422%, 29.711914%)" offset="0.238281"/><stop stop-opacity="1" stop-color="rgb(86.708069%, 45.225525%, 29.690552%)" offset="0.242187"/><stop stop-opacity="1" stop-color="rgb(86.553955%, 45.00885%, 29.667664%)" offset="0.246094"/><stop stop-opacity="1" stop-color="rgb(86.399841%, 44.793701%, 29.644775%)" offset="0.25"/><stop stop-opacity="1" stop-color="rgb(86.245728%, 44.577026%, 29.621887%)" offset="0.253906"/><stop stop-opacity="1" stop-color="rgb(86.09314%, 44.360352%, 29.598999%)" offset="0.257812"/><stop stop-opacity="1" stop-color="rgb(85.939026%, 44.143677%, 29.576111%)" offset="0.261719"/><stop stop-opacity="1" stop-color="rgb(85.784912%, 43.928528%, 29.554749%)" offset="0.265625"/><stop stop-opacity="1" stop-color="rgb(85.630798%, 43.711853%, 29.53186%)" offset="0.269531"/><stop stop-opacity="1" stop-color="rgb(85.47821%, 43.495178%, 29.508972%)" offset="0.273437"/><stop stop-opacity="1" stop-color="rgb(85.324097%, 43.278503%, 29.486084%)" offset="0.277344"/><stop stop-opacity="1" stop-color="rgb(85.169983%, 43.061829%, 29.463196%)" offset="0.28125"/><stop stop-opacity="1" stop-color="rgb(85.015869%, 42.845154%, 29.440308%)" offset="0.285156"/><stop stop-opacity="1" stop-color="rgb(84.861755%, 42.630005%, 29.417419%)" offset="0.289062"/><stop stop-opacity="1" stop-color="rgb(84.707642%, 42.41333%, 29.394531%)" offset="0.292969"/><stop stop-opacity="1" stop-color="rgb(84.555054%, 42.196655%, 29.373169%)" offset="0.296875"/><stop stop-opacity="1" stop-color="rgb(84.40094%, 41.97998%, 29.350281%)" offset="0.300781"/><stop stop-opacity="1" stop-color="rgb(84.246826%, 41.763306%, 29.327393%)" offset="0.304688"/><stop stop-opacity="1" stop-color="rgb(84.092712%, 41.546631%, 29.304504%)" offset="0.308594"/><stop stop-opacity="1" stop-color="rgb(83.938599%, 41.331482%, 29.281616%)" offset="0.3125"/><stop stop-opacity="1" stop-color="rgb(83.784485%, 41.114807%, 29.258728%)" offset="0.316406"/><stop stop-opacity="1" stop-color="rgb(83.631897%, 40.898132%, 29.237366%)" offset="0.320312"/><stop stop-opacity="1" stop-color="rgb(83.477783%, 40.681458%, 29.214478%)" offset="0.324219"/><stop stop-opacity="1" stop-color="rgb(83.323669%, 40.464783%, 29.191589%)" offset="0.328125"/><stop stop-opacity="1" stop-color="rgb(83.169556%, 40.248108%, 29.168701%)" offset="0.332031"/><stop stop-opacity="1" stop-color="rgb(83.016968%, 40.032959%, 29.145813%)" offset="0.335938"/><stop stop-opacity="1" stop-color="rgb(82.862854%, 39.816284%, 29.122925%)" offset="0.339844"/><stop stop-opacity="1" stop-color="rgb(82.70874%, 39.599609%, 29.101562%)" offset="0.34375"/><stop stop-opacity="1" stop-color="rgb(82.554626%, 39.382935%, 29.078674%)" offset="0.347656"/><stop stop-opacity="1" stop-color="rgb(82.400513%, 39.16626%, 29.055786%)" offset="0.351562"/><stop stop-opacity="1" stop-color="rgb(82.246399%, 38.949585%, 29.032898%)" offset="0.355469"/><stop stop-opacity="1" stop-color="rgb(82.093811%, 38.734436%, 29.01001%)" offset="0.359375"/><stop stop-opacity="1" stop-color="rgb(81.939697%, 38.517761%, 28.987122%)" offset="0.363281"/><stop stop-opacity="1" stop-color="rgb(81.785583%, 38.301086%, 28.964233%)" offset="0.367187"/><stop stop-opacity="1" stop-color="rgb(81.63147%, 38.084412%, 28.941345%)" offset="0.371094"/><stop stop-opacity="1" stop-color="rgb(81.478882%, 37.867737%, 28.919983%)" offset="0.375"/><stop stop-opacity="1" stop-color="rgb(81.324768%, 37.651062%, 28.897095%)" offset="0.378906"/><stop stop-opacity="1" stop-color="rgb(81.170654%, 37.435913%, 28.874207%)" offset="0.382812"/><stop stop-opacity="1" stop-color="rgb(81.016541%, 37.219238%, 28.851318%)" offset="0.386719"/><stop stop-opacity="1" stop-color="rgb(80.862427%, 37.002563%, 28.82843%)" offset="0.390625"/><stop stop-opacity="1" stop-color="rgb(80.708313%, 36.785889%, 28.805542%)" offset="0.394531"/><stop stop-opacity="1" stop-color="rgb(80.555725%, 36.569214%, 28.78418%)" offset="0.398437"/><stop stop-opacity="1" stop-color="rgb(80.401611%, 36.352539%, 28.761292%)" offset="0.402344"/><stop stop-opacity="1" stop-color="rgb(80.247498%, 36.13739%, 28.738403%)" offset="0.40625"/><stop stop-opacity="1" stop-color="rgb(80.093384%, 35.920715%, 28.715515%)" offset="0.410156"/><stop stop-opacity="1" stop-color="rgb(79.940796%, 35.704041%, 28.692627%)" offset="0.414062"/><stop stop-opacity="1" stop-color="rgb(79.786682%, 35.487366%, 28.669739%)" offset="0.417969"/><stop stop-opacity="1" stop-color="rgb(79.632568%, 35.270691%, 28.648376%)" offset="0.421875"/><stop stop-opacity="1" stop-color="rgb(79.478455%, 35.054016%, 28.625488%)" offset="0.425781"/><stop stop-opacity="1" stop-color="rgb(79.324341%, 34.838867%, 28.6026%)" offset="0.429687"/><stop stop-opacity="1" stop-color="rgb(79.170227%, 34.622192%, 28.579712%)" offset="0.433594"/><stop stop-opacity="1" stop-color="rgb(79.017639%, 34.405518%, 28.556824%)" offset="0.4375"/><stop stop-opacity="1" stop-color="rgb(78.863525%, 34.188843%, 28.533936%)" offset="0.441406"/><stop stop-opacity="1" stop-color="rgb(78.709412%, 33.972168%, 28.512573%)" offset="0.445312"/><stop stop-opacity="1" stop-color="rgb(78.555298%, 33.755493%, 28.489685%)" offset="0.449219"/><stop stop-opacity="1" stop-color="rgb(78.40271%, 33.540344%, 28.466797%)" offset="0.453125"/><stop stop-opacity="1" stop-color="rgb(78.248596%, 33.323669%, 28.443909%)" offset="0.457031"/><stop stop-opacity="1" stop-color="rgb(78.094482%, 33.106995%, 28.421021%)" offset="0.460937"/><stop stop-opacity="1" stop-color="rgb(77.940369%, 32.89032%, 28.398132%)" offset="0.464844"/><stop stop-opacity="1" stop-color="rgb(77.786255%, 32.673645%, 28.375244%)" offset="0.46875"/><stop stop-opacity="1" stop-color="rgb(77.632141%, 32.45697%, 28.352356%)" offset="0.472656"/><stop stop-opacity="1" stop-color="rgb(77.479553%, 32.241821%, 28.330994%)" offset="0.476562"/><stop stop-opacity="1" stop-color="rgb(77.325439%, 32.025146%, 28.308105%)" offset="0.480469"/><stop stop-opacity="1" stop-color="rgb(77.171326%, 31.808472%, 28.285217%)" offset="0.484375"/><stop stop-opacity="1" stop-color="rgb(77.017212%, 31.591797%, 28.262329%)" offset="0.488281"/><stop stop-opacity="1" stop-color="rgb(76.864624%, 31.376648%, 28.239441%)" offset="0.492187"/><stop stop-opacity="1" stop-color="rgb(75.762939%, 30.923462%, 27.835083%)" offset="0.496094"/><stop stop-opacity="1" stop-color="rgb(74.661255%, 30.471802%, 27.432251%)" offset="0.5"/><stop stop-opacity="1" stop-color="rgb(73.544312%, 30.015564%, 27.02179%)" offset="0.503906"/><stop stop-opacity="1" stop-color="rgb(72.428894%, 29.560852%, 26.611328%)" offset="0.507812"/><stop stop-opacity="1" stop-color="rgb(71.311951%, 29.104614%, 26.200867%)" offset="0.511719"/><stop stop-opacity="1" stop-color="rgb(70.195007%, 28.649902%, 25.790405%)" offset="0.515625"/><stop stop-opacity="1" stop-color="rgb(69.078064%, 28.193665%, 25.379944%)" offset="0.519531"/><stop stop-opacity="1" stop-color="rgb(67.962646%, 27.738953%, 24.971008%)" offset="0.523437"/><stop stop-opacity="1" stop-color="rgb(66.845703%, 27.282715%, 24.560547%)" offset="0.527344"/><stop stop-opacity="1" stop-color="rgb(65.730286%, 26.826477%, 24.150085%)" offset="0.53125"/><stop stop-opacity="1" stop-color="rgb(64.613342%, 26.370239%, 23.739624%)" offset="0.535156"/><stop stop-opacity="1" stop-color="rgb(63.497925%, 25.915527%, 23.329163%)" offset="0.539062"/><stop stop-opacity="1" stop-color="rgb(62.380981%, 25.45929%, 22.918701%)" offset="0.542969"/><stop stop-opacity="1" stop-color="rgb(61.265564%, 25.004578%, 22.509766%)" offset="0.546875"/><stop stop-opacity="1" stop-color="rgb(60.148621%, 24.54834%, 22.099304%)" offset="0.550781"/><stop stop-opacity="1" stop-color="rgb(59.031677%, 24.093628%, 21.688843%)" offset="0.554687"/><stop stop-opacity="1" stop-color="rgb(57.914734%, 23.63739%, 21.278381%)" offset="0.558594"/><stop stop-opacity="1" stop-color="rgb(56.799316%, 23.182678%, 20.869446%)" offset="0.5625"/><stop stop-opacity="1" stop-color="rgb(55.682373%, 22.72644%, 20.458984%)" offset="0.566406"/><stop stop-opacity="1" stop-color="rgb(54.566956%, 22.270203%, 20.048523%)" offset="0.570312"/><stop stop-opacity="1" stop-color="rgb(53.450012%, 21.813965%, 19.638062%)" offset="0.574219"/><stop stop-opacity="1" stop-color="rgb(52.334595%, 21.359253%, 19.2276%)" offset="0.578125"/><stop stop-opacity="1" stop-color="rgb(51.217651%, 20.903015%, 18.817139%)" offset="0.582031"/><stop stop-opacity="1" stop-color="rgb(50.100708%, 20.448303%, 18.408203%)" offset="0.585937"/><stop stop-opacity="1" stop-color="rgb(48.983765%, 19.992065%, 17.997742%)" offset="0.589844"/><stop stop-opacity="1" stop-color="rgb(47.868347%, 19.537354%, 17.58728%)" offset="0.59375"/><stop stop-opacity="1" stop-color="rgb(46.751404%, 19.081116%, 17.176819%)" offset="0.597656"/><stop stop-opacity="1" stop-color="rgb(45.635986%, 18.626404%, 16.767883%)" offset="0.601562"/><stop stop-opacity="1" stop-color="rgb(44.519043%, 18.170166%, 16.357422%)" offset="0.605469"/><stop stop-opacity="1" stop-color="rgb(43.403625%, 17.713928%, 15.94696%)" offset="0.609375"/><stop stop-opacity="1" stop-color="rgb(42.286682%, 17.25769%, 15.536499%)" offset="0.613281"/><stop stop-opacity="1" stop-color="rgb(41.171265%, 16.802979%, 15.126038%)" offset="0.617187"/><stop stop-opacity="1" stop-color="rgb(40.054321%, 16.346741%, 14.715576%)" offset="0.621094"/><stop stop-opacity="1" stop-color="rgb(38.937378%, 15.892029%, 14.306641%)" offset="0.625"/><stop stop-opacity="1" stop-color="rgb(37.820435%, 15.435791%, 13.896179%)" offset="0.628906"/><stop stop-opacity="1" stop-color="rgb(36.705017%, 14.981079%, 13.485718%)" offset="0.632812"/><stop stop-opacity="1" stop-color="rgb(35.588074%, 14.524841%, 13.075256%)" offset="0.636719"/><stop stop-opacity="1" stop-color="rgb(34.472656%, 14.070129%, 12.664795%)" offset="0.640625"/><stop stop-opacity="1" stop-color="rgb(33.355713%, 13.613892%, 12.254333%)" offset="0.644531"/><stop stop-opacity="1" stop-color="rgb(32.240295%, 13.157654%, 11.845398%)" offset="0.648437"/><stop stop-opacity="1" stop-color="rgb(31.123352%, 12.701416%, 11.434937%)" offset="0.652344"/><stop stop-opacity="1" stop-color="rgb(30.007935%, 12.246704%, 11.024475%)" offset="0.65625"/><stop stop-opacity="1" stop-color="rgb(28.890991%, 11.790466%, 10.614014%)" offset="0.660156"/><stop stop-opacity="1" stop-color="rgb(27.774048%, 11.335754%, 10.205078%)" offset="0.664062"/><stop stop-opacity="1" stop-color="rgb(26.657104%, 10.879517%, 9.794617%)" offset="0.667969"/><stop stop-opacity="1" stop-color="rgb(25.541687%, 10.424805%, 9.384155%)" offset="0.671875"/><stop stop-opacity="1" stop-color="rgb(24.424744%, 9.968567%, 8.973694%)" offset="0.675781"/><stop stop-opacity="1" stop-color="rgb(23.309326%, 9.513855%, 8.563232%)" offset="0.679687"/><stop stop-opacity="1" stop-color="rgb(22.192383%, 9.057617%, 8.152771%)" offset="0.683594"/><stop stop-opacity="1" stop-color="rgb(21.076965%, 8.601379%, 7.743835%)" offset="0.6875"/><stop stop-opacity="1" stop-color="rgb(19.960022%, 8.145142%, 7.333374%)" offset="0.691406"/><stop stop-opacity="1" stop-color="rgb(18.844604%, 7.69043%, 6.922913%)" offset="0.695312"/><stop stop-opacity="1" stop-color="rgb(17.727661%, 7.234192%, 6.512451%)" offset="0.699219"/><stop stop-opacity="1" stop-color="rgb(16.610718%, 6.77948%, 6.103516%)" offset="0.703125"/><stop stop-opacity="1" stop-color="rgb(15.493774%, 6.323242%, 5.693054%)" offset="0.707031"/><stop stop-opacity="1" stop-color="rgb(14.378357%, 5.86853%, 5.282593%)" offset="0.710937"/><stop stop-opacity="1" stop-color="rgb(13.261414%, 5.412292%, 4.872131%)" offset="0.714844"/><stop stop-opacity="1" stop-color="rgb(12.145996%, 4.957581%, 4.46167%)" offset="0.71875"/><stop stop-opacity="1" stop-color="rgb(11.029053%, 4.501343%, 4.051208%)" offset="0.722656"/><stop stop-opacity="1" stop-color="rgb(9.913635%, 4.045105%, 3.642273%)" offset="0.726562"/><stop stop-opacity="1" stop-color="rgb(8.796692%, 3.588867%, 3.231812%)" offset="0.730469"/><stop stop-opacity="1" stop-color="rgb(7.681274%, 3.134155%, 2.82135%)" offset="0.734375"/><stop stop-opacity="1" stop-color="rgb(6.564331%, 2.677917%, 2.410889%)" offset="0.738281"/><stop stop-opacity="1" stop-color="rgb(5.447388%, 2.223206%, 2.000427%)" offset="0.742187"/><stop stop-opacity="1" stop-color="rgb(4.330444%, 1.766968%, 1.589966%)" offset="0.746094"/><stop stop-opacity="1" stop-color="rgb(3.215027%, 1.312256%, 1.18103%)" offset="0.75"/><stop stop-opacity="1" stop-color="rgb(2.098083%, 0.856018%, 0.770569%)" offset="0.753906"/><stop stop-opacity="1" stop-color="rgb(0.982666%, 0.401306%, 0.360107%)" offset="0.757813"/><stop stop-opacity="1" stop-color="rgb(0.491333%, 0.19989%, 0.180054%)" offset="0.761719"/><stop stop-opacity="1" stop-color="rgb(0%, 0%, 0%)" offset="0.765625"/><stop stop-opacity="1" stop-color="rgb(0%, 0%, 0%)" offset="0.78125"/><stop stop-opacity="1" stop-color="rgb(0%, 0%, 0%)" offset="0.8125"/><stop stop-opacity="1" stop-color="rgb(0%, 0%, 0%)" offset="0.875"/><stop stop-opacity="1" stop-color="rgb(0%, 0%, 0%)" offset="1"/></linearGradient><clipPath id="cd2cb3d1db"><rect x="0" width="667" y="0" height="98"/></clipPath><clipPath id="cd0c8f0950"><path d="M 0.707031 0 L 666.292969 0 L 666.292969 97.003906 L 0.707031 97.003906 Z M 0.707031 0 " clip-rule="nonzero"/></clipPath><clipPath id="3b9a25b1a5"><rect x="0" width="667" y="0" height="98"/></clipPath><clipPath id="d14955cf72"><rect x="0" width="667" y="0" height="98"/></clipPath><mask id="efc9f3ccf0"><g filter="url(#fa7572d400)"><g transform="matrix(1, 0, 0, 1, -0.000000000000000222, 0.000000000000016238)"><g clip-path="url(#d14955cf72)"><g clip-path="url(#cd0c8f0950)"><g transform="matrix(1, 0, 0, 1, -0.000000000000000222, 0.000000000000016238)"><g clip-path="url(#3b9a25b1a5)"><g fill="#000000" fill-opacity="1"><g transform="translate(13.146743, 61.559312)"><g><path d="M 2.46875 0 C 2.46875 -0.664062 2.535156 -1.195312 2.671875 -1.59375 C 2.816406 -2 2.992188 -2.242188 3.203125 -2.328125 L 6.453125 -3.34375 L 5.625 -2.375 L 5.625 -26.8125 L 6.453125 -25.859375 L 2.515625 -26.8125 C 2.515625 -27.363281 2.578125 -27.835938 2.703125 -28.234375 C 2.828125 -28.628906 3.054688 -28.992188 3.390625 -29.328125 L 16.796875 -29.328125 C 18.773438 -29.328125 20.453125 -28.984375 21.828125 -28.296875 C 23.203125 -27.617188 24.253906 -26.679688 24.984375 -25.484375 C 25.722656 -24.296875 26.09375 -22.941406 26.09375 -21.421875 C 26.09375 -19.742188 25.648438 -18.1875 24.765625 -16.75 C 23.878906 -15.3125 22.632812 -14.164062 21.03125 -13.3125 C 19.425781 -12.457031 17.554688 -12.03125 15.421875 -12.03125 C 14.660156 -12.03125 13.851562 -12.09375 13 -12.21875 C 12.144531 -12.34375 11.320312 -12.523438 10.53125 -12.765625 L 11.53125 -12.765625 L 11.53125 -2.015625 L 10.109375 -3.484375 L 14.875 -2.515625 C 14.875 -1.929688 14.8125 -1.457031 14.6875 -1.09375 C 14.5625 -0.726562 14.332031 -0.363281 14 0 Z M 11.53125 -15.015625 L 10.65625 -15.921875 C 11.0625 -15.773438 11.632812 -15.640625 12.375 -15.515625 C 13.125 -15.390625 13.832031 -15.328125 14.5 -15.328125 C 15.695312 -15.328125 16.691406 -15.570312 17.484375 -16.0625 C 18.273438 -16.550781 18.867188 -17.210938 19.265625 -18.046875 C 19.660156 -18.890625 19.859375 -19.859375 19.859375 -20.953125 C 19.859375 -22.691406 19.398438 -23.992188 18.484375 -24.859375 C 17.566406 -25.734375 16.253906 -26.171875 14.546875 -26.171875 C 13.910156 -26.171875 13.269531 -26.117188 12.625 -26.015625 C 11.988281 -25.910156 11.347656 -25.78125 10.703125 -25.625 L 11.53125 -26.359375 Z M 26.046875 0.5 C 25.191406 0.5 24.3125 0.25 23.40625 -0.25 C 22.507812 -0.75 21.601562 -1.546875 20.6875 -2.640625 C 19.769531 -3.742188 18.859375 -5.195312 17.953125 -7 C 17.054688 -8.800781 16.148438 -11 15.234375 -13.59375 L 19.8125 -15.015625 C 20.914062 -12.878906 22.0625 -10.882812 23.25 -9.03125 C 24.4375 -7.1875 25.640625 -5.585938 26.859375 -4.234375 C 28.078125 -2.878906 29.207031 -1.847656 30.25 -1.140625 C 29.613281 -0.648438 28.921875 -0.253906 28.171875 0.046875 C 27.421875 0.347656 26.710938 0.5 26.046875 0.5 Z M 26.046875 0.5 "/></g></g></g><g fill="#000000" fill-opacity="1"><g transform="translate(44.081482, 61.559312)"><g><path d="M 11.71875 0.546875 C 9.707031 0.546875 7.9375 0.117188 6.40625 -0.734375 C 4.882812 -1.585938 3.703125 -2.773438 2.859375 -4.296875 C 2.023438 -5.828125 1.609375 -7.597656 1.609375 -9.609375 C 1.609375 -11.804688 2.09375 -13.773438 3.0625 -15.515625 C 4.039062 -17.253906 5.359375 -18.625 7.015625 -19.625 C 8.679688 -20.632812 10.535156 -21.140625 12.578125 -21.140625 C 14.347656 -21.140625 15.890625 -20.765625 17.203125 -20.015625 C 18.515625 -19.273438 19.53125 -18.238281 20.25 -16.90625 C 20.96875 -15.582031 21.328125 -14.019531 21.328125 -12.21875 C 21.328125 -11.457031 21.21875 -10.960938 21 -10.734375 C 20.789062 -10.503906 20.457031 -10.390625 20 -10.390625 L 5.71875 -10.390625 L 5.71875 -12.546875 L 16.515625 -12.8125 L 16.015625 -12.125 C 16.046875 -13.59375 15.90625 -14.835938 15.59375 -15.859375 C 15.289062 -16.878906 14.847656 -17.65625 14.265625 -18.1875 C 13.691406 -18.726562 12.992188 -19 12.171875 -19 C 10.890625 -19 9.835938 -18.316406 9.015625 -16.953125 C 8.191406 -15.597656 7.78125 -13.710938 7.78125 -11.296875 C 7.78125 -9.503906 8.039062 -7.953125 8.5625 -6.640625 C 9.082031 -5.328125 9.84375 -4.328125 10.84375 -3.640625 C 11.851562 -2.953125 13.085938 -2.609375 14.546875 -2.609375 C 15.679688 -2.609375 16.75 -2.851562 17.75 -3.34375 C 18.757812 -3.832031 19.738281 -4.535156 20.6875 -5.453125 L 21.421875 -3.796875 C 20.710938 -2.941406 19.835938 -2.1875 18.796875 -1.53125 C 17.765625 -0.875 16.644531 -0.363281 15.4375 0 C 14.238281 0.363281 13 0.546875 11.71875 0.546875 Z M 11.71875 0.546875 "/></g></g></g><g fill="#000000" fill-opacity="1"><g transform="translate(67.191021, 61.559312)"><g><path d="M 9.515625 0.546875 C 7.960938 0.546875 6.582031 0.144531 5.375 -0.65625 C 4.164062 -1.46875 3.234375 -2.613281 2.578125 -4.09375 C 1.929688 -5.570312 1.609375 -7.289062 1.609375 -9.25 C 1.609375 -11.59375 2.054688 -13.65625 2.953125 -15.4375 C 3.847656 -17.226562 5.085938 -18.625 6.671875 -19.625 C 8.265625 -20.632812 10.097656 -21.140625 12.171875 -21.140625 C 13.054688 -21.140625 13.957031 -21.046875 14.875 -20.859375 C 15.789062 -20.679688 16.691406 -20.410156 17.578125 -20.046875 L 17.15625 -19.5 L 17.15625 -30.75 L 17.71875 -30.0625 L 14.734375 -30.703125 C 14.273438 -30.796875 14.046875 -31.546875 14.046875 -32.953125 C 15.453125 -33.191406 16.582031 -33.359375 17.4375 -33.453125 C 18.289062 -33.546875 18.992188 -33.59375 19.546875 -33.59375 C 20.703125 -33.59375 21.550781 -33.363281 22.09375 -32.90625 C 22.644531 -32.445312 22.921875 -31.695312 22.921875 -30.65625 L 22.921875 -4.296875 C 22.921875 -3.753906 23.023438 -3.351562 23.234375 -3.09375 C 23.453125 -2.832031 23.789062 -2.703125 24.25 -2.703125 C 24.59375 -2.703125 24.9375 -2.757812 25.28125 -2.875 C 25.632812 -3 25.90625 -3.140625 26.09375 -3.296875 L 26.546875 -1.5625 C 25.867188 -0.914062 25.054688 -0.398438 24.109375 -0.015625 C 23.171875 0.359375 22.242188 0.546875 21.328125 0.546875 C 20.140625 0.546875 19.207031 0.195312 18.53125 -0.5 C 17.863281 -1.207031 17.53125 -2.171875 17.53125 -3.390625 L 17.203125 -3.390625 C 16.441406 -2.253906 15.378906 -1.3125 14.015625 -0.5625 C 12.660156 0.175781 11.160156 0.546875 9.515625 0.546875 Z M 12.578125 -3.015625 C 13.410156 -3.015625 14.140625 -3.160156 14.765625 -3.453125 C 15.390625 -3.742188 15.953125 -4.140625 16.453125 -4.640625 C 16.953125 -5.148438 17.398438 -5.675781 17.796875 -6.21875 L 17.25 -4.984375 L 17.25 -18.03125 L 17.796875 -16.703125 C 17.222656 -17.316406 16.582031 -17.789062 15.875 -18.125 C 15.175781 -18.457031 14.335938 -18.625 13.359375 -18.625 C 11.585938 -18.625 10.207031 -17.898438 9.21875 -16.453125 C 8.226562 -15.003906 7.734375 -12.953125 7.734375 -10.296875 C 7.734375 -7.921875 8.144531 -6.113281 8.96875 -4.875 C 9.789062 -3.632812 10.992188 -3.015625 12.578125 -3.015625 Z M 12.578125 -3.015625 "/></g></g></g><g fill="#000000" fill-opacity="1"><g transform="translate(94.602135, 61.559312)"><g><path d="M 11.71875 0.546875 C 9.707031 0.546875 7.9375 0.117188 6.40625 -0.734375 C 4.882812 -1.585938 3.703125 -2.773438 2.859375 -4.296875 C 2.023438 -5.828125 1.609375 -7.597656 1.609375 -9.609375 C 1.609375 -11.804688 2.09375 -13.773438 3.0625 -15.515625 C 4.039062 -17.253906 5.359375 -18.625 7.015625 -19.625 C 8.679688 -20.632812 10.535156 -21.140625 12.578125 -21.140625 C 14.347656 -21.140625 15.890625 -20.765625 17.203125 -20.015625 C 18.515625 -19.273438 19.53125 -18.238281 20.25 -16.90625 C 20.96875 -15.582031 21.328125 -14.019531 21.328125 -12.21875 C 21.328125 -11.457031 21.21875 -10.960938 21 -10.734375 C 20.789062 -10.503906 20.457031 -10.390625 20 -10.390625 L 5.71875 -10.390625 L 5.71875 -12.546875 L 16.515625 -12.8125 L 16.015625 -12.125 C 16.046875 -13.59375 15.90625 -14.835938 15.59375 -15.859375 C 15.289062 -16.878906 14.847656 -17.65625 14.265625 -18.1875 C 13.691406 -18.726562 12.992188 -19 12.171875 -19 C 10.890625 -19 9.835938 -18.316406 9.015625 -16.953125 C 8.191406 -15.597656 7.78125 -13.710938 7.78125 -11.296875 C 7.78125 -9.503906 8.039062 -7.953125 8.5625 -6.640625 C 9.082031 -5.328125 9.84375 -4.328125 10.84375 -3.640625 C 11.851562 -2.953125 13.085938 -2.609375 14.546875 -2.609375 C 15.679688 -2.609375 16.75 -2.851562 17.75 -3.34375 C 18.757812 -3.832031 19.738281 -4.535156 20.6875 -5.453125 L 21.421875 -3.796875 C 20.710938 -2.941406 19.835938 -2.1875 18.796875 -1.53125 C 17.765625 -0.875 16.644531 -0.363281 15.4375 0 C 14.238281 0.363281 13 0.546875 11.71875 0.546875 Z M 11.71875 0.546875 "/></g></g></g><g fill="#000000" fill-opacity="1"><g transform="translate(117.711674, 61.559312)"><g><path d="M 2.25 0 C 2.25 -1.34375 2.488281 -2.117188 2.96875 -2.328125 L 5.578125 -3.390625 L 5.078125 -2.703125 L 5.078125 -18.390625 C 5.078125 -20.554688 5.390625 -22.5625 6.015625 -24.40625 C 6.640625 -26.257812 7.484375 -27.867188 8.546875 -29.234375 C 9.617188 -30.609375 10.832031 -31.675781 12.1875 -32.4375 C 13.550781 -33.207031 14.96875 -33.59375 16.4375 -33.59375 C 17.53125 -33.59375 18.363281 -33.347656 18.9375 -32.859375 C 19.519531 -32.367188 19.8125 -31.742188 19.8125 -30.984375 C 19.8125 -30.679688 19.765625 -30.359375 19.671875 -30.015625 C 19.585938 -29.679688 19.46875 -29.363281 19.3125 -29.0625 L 16.75 -29.0625 C 15.375 -29.0625 14.25 -28.804688 13.375 -28.296875 C 12.507812 -27.796875 11.878906 -26.972656 11.484375 -25.828125 C 11.085938 -24.691406 10.890625 -23.113281 10.890625 -21.09375 L 10.890625 -2.5625 L 10.203125 -3.5625 L 14.234375 -2.515625 C 14.234375 -1.929688 14.175781 -1.460938 14.0625 -1.109375 C 13.957031 -0.765625 13.738281 -0.394531 13.40625 0 Z M 15.75 -17.15625 L 1.875 -17.53125 C 1.875 -18.101562 1.941406 -18.65625 2.078125 -19.1875 C 2.210938 -19.726562 2.421875 -20.09375 2.703125 -20.28125 L 16.796875 -20.953125 C 16.890625 -20.773438 16.953125 -20.59375 16.984375 -20.40625 C 17.015625 -20.226562 17.03125 -20.046875 17.03125 -19.859375 C 17.03125 -19.160156 16.914062 -18.570312 16.6875 -18.09375 C 16.457031 -17.625 16.144531 -17.3125 15.75 -17.15625 Z M 15.75 -17.15625 "/></g></g></g><g fill="#000000" fill-opacity="1"><g transform="translate(134.185796, 61.559312)"><g><path d="M 1.875 0 C 1.875 -1.40625 2.117188 -2.179688 2.609375 -2.328125 L 5.484375 -3.390625 L 4.984375 -2.703125 L 4.984375 -18.078125 L 5.53125 -17.390625 L 2.5625 -18.078125 C 2.101562 -18.171875 1.875 -18.914062 1.875 -20.3125 C 3.03125 -20.5 4.101562 -20.648438 5.09375 -20.765625 C 6.09375 -20.890625 7.140625 -20.953125 8.234375 -20.953125 C 9.941406 -20.953125 10.796875 -19.976562 10.796875 -18.03125 L 10.796875 -2.84375 L 10.25 -3.484375 L 14.1875 -2.515625 C 14.1875 -1.929688 14.128906 -1.460938 14.015625 -1.109375 C 13.910156 -0.765625 13.691406 -0.394531 13.359375 0 Z M 7.6875 -24.8125 C 6.644531 -24.8125 5.847656 -25.097656 5.296875 -25.671875 C 4.753906 -26.253906 4.484375 -27.019531 4.484375 -27.96875 C 4.484375 -28.90625 4.8125 -29.671875 5.46875 -30.265625 C 6.125 -30.867188 6.863281 -31.171875 7.6875 -31.171875 C 8.726562 -31.171875 9.53125 -30.878906 10.09375 -30.296875 C 10.65625 -29.710938 10.9375 -28.9375 10.9375 -27.96875 C 10.9375 -27.082031 10.609375 -26.332031 9.953125 -25.71875 C 9.296875 -25.113281 8.539062 -24.8125 7.6875 -24.8125 Z M 7.6875 -24.8125 "/></g></g></g><g fill="#000000" fill-opacity="1"><g transform="translate(149.6074, 61.559312)"><g><path d="M 1.875 0 C 1.875 -1.40625 2.117188 -2.179688 2.609375 -2.328125 L 5.21875 -3.390625 L 4.71875 -2.609375 L 4.71875 -17.75 L 5.265625 -17.078125 L 2.5625 -17.75 C 2.101562 -17.875 1.875 -18.625 1.875 -20 C 3.3125 -20.238281 4.429688 -20.40625 5.234375 -20.5 C 6.046875 -20.59375 6.726562 -20.640625 7.28125 -20.640625 C 8.3125 -20.640625 9.046875 -20.410156 9.484375 -19.953125 C 9.929688 -19.492188 10.15625 -18.757812 10.15625 -17.75 L 10.15625 -16.65625 L 9.9375 -16.796875 L 10.484375 -16.796875 C 11.828125 -18.140625 13.273438 -19.195312 14.828125 -19.96875 C 16.378906 -20.75 17.859375 -21.140625 19.265625 -21.140625 C 22.773438 -21.140625 24.53125 -18.757812 24.53125 -14 L 24.53125 -2.84375 L 24.03125 -3.484375 L 27.375 -2.515625 C 27.375 -1.929688 27.316406 -1.460938 27.203125 -1.109375 C 27.097656 -0.765625 26.878906 -0.394531 26.546875 0 L 16.515625 0 C 16.515625 -1.40625 16.757812 -2.179688 17.25 -2.328125 L 19.21875 -3.0625 L 18.765625 -2.28125 L 18.765625 -13.3125 C 18.765625 -15.90625 17.800781 -17.203125 15.875 -17.203125 C 15.082031 -17.203125 14.3125 -17.039062 13.5625 -16.71875 C 12.820312 -16.40625 12.160156 -16.019531 11.578125 -15.5625 C 10.992188 -15.101562 10.550781 -14.660156 10.25 -14.234375 L 10.484375 -15.015625 L 10.484375 -2.5625 L 9.9375 -3.203125 L 12.765625 -2.515625 C 12.765625 -1.929688 12.703125 -1.460938 12.578125 -1.109375 C 12.460938 -0.765625 12.238281 -0.394531 11.90625 0 Z M 1.875 0 "/></g></g></g><g fill="#000000" fill-opacity="1"><g transform="translate(178.254069, 61.559312)"><g><path d="M 1.875 0 C 1.875 -1.40625 2.117188 -2.179688 2.609375 -2.328125 L 5.484375 -3.390625 L 4.984375 -2.703125 L 4.984375 -18.078125 L 5.53125 -17.390625 L 2.5625 -18.078125 C 2.101562 -18.171875 1.875 -18.914062 1.875 -20.3125 C 3.03125 -20.5 4.101562 -20.648438 5.09375 -20.765625 C 6.09375 -20.890625 7.140625 -20.953125 8.234375 -20.953125 C 9.941406 -20.953125 10.796875 -19.976562 10.796875 -18.03125 L 10.796875 -2.84375 L 10.25 -3.484375 L 14.1875 -2.515625 C 14.1875 -1.929688 14.128906 -1.460938 14.015625 -1.109375 C 13.910156 -0.765625 13.691406 -0.394531 13.359375 0 Z M 7.6875 -24.8125 C 6.644531 -24.8125 5.847656 -25.097656 5.296875 -25.671875 C 4.753906 -26.253906 4.484375 -27.019531 4.484375 -27.96875 C 4.484375 -28.90625 4.8125 -29.671875 5.46875 -30.265625 C 6.125 -30.867188 6.863281 -31.171875 7.6875 -31.171875 C 8.726562 -31.171875 9.53125 -30.878906 10.09375 -30.296875 C 10.65625 -29.710938 10.9375 -28.9375 10.9375 -27.96875 C 10.9375 -27.082031 10.609375 -26.332031 9.953125 -25.71875 C 9.296875 -25.113281 8.539062 -24.8125 7.6875 -24.8125 Z M 7.6875 -24.8125 "/></g></g></g><g fill="#000000" fill-opacity="1"><g transform="translate(193.675673, 61.559312)"><g><path d="M 1.875 0 C 1.875 -1.40625 2.117188 -2.179688 2.609375 -2.328125 L 5.21875 -3.390625 L 4.71875 -2.609375 L 4.71875 -17.75 L 5.265625 -17.078125 L 2.5625 -17.75 C 2.101562 -17.875 1.875 -18.625 1.875 -20 C 3.3125 -20.238281 4.429688 -20.40625 5.234375 -20.5 C 6.046875 -20.59375 6.726562 -20.640625 7.28125 -20.640625 C 8.3125 -20.640625 9.046875 -20.410156 9.484375 -19.953125 C 9.929688 -19.492188 10.15625 -18.757812 10.15625 -17.75 L 10.15625 -16.65625 L 9.9375 -16.796875 L 10.484375 -16.796875 C 11.828125 -18.140625 13.273438 -19.195312 14.828125 -19.96875 C 16.378906 -20.75 17.859375 -21.140625 19.265625 -21.140625 C 22.773438 -21.140625 24.53125 -18.757812 24.53125 -14 L 24.53125 -2.84375 L 24.03125 -3.484375 L 27.375 -2.515625 C 27.375 -1.929688 27.316406 -1.460938 27.203125 -1.109375 C 27.097656 -0.765625 26.878906 -0.394531 26.546875 0 L 16.515625 0 C 16.515625 -1.40625 16.757812 -2.179688 17.25 -2.328125 L 19.21875 -3.0625 L 18.765625 -2.28125 L 18.765625 -13.3125 C 18.765625 -15.90625 17.800781 -17.203125 15.875 -17.203125 C 15.082031 -17.203125 14.3125 -17.039062 13.5625 -16.71875 C 12.820312 -16.40625 12.160156 -16.019531 11.578125 -15.5625 C 10.992188 -15.101562 10.550781 -14.660156 10.25 -14.234375 L 10.484375 -15.015625 L 10.484375 -2.5625 L 9.9375 -3.203125 L 12.765625 -2.515625 C 12.765625 -1.929688 12.703125 -1.460938 12.578125 -1.109375 C 12.460938 -0.765625 12.238281 -0.394531 11.90625 0 Z M 1.875 0 "/></g></g></g><g fill="#000000" fill-opacity="1"><g transform="translate(222.322329, 61.559312)"><g><path d="M 11.265625 12.359375 C 8.328125 12.359375 5.984375 11.785156 4.234375 10.640625 C 2.484375 9.492188 1.609375 7.976562 1.609375 6.09375 C 1.609375 4.351562 2.535156 3.484375 4.390625 3.484375 C 4.847656 3.484375 5.3125 3.535156 5.78125 3.640625 C 6.257812 3.742188 6.710938 3.890625 7.140625 4.078125 C 7.140625 6.148438 7.570312 7.703125 8.4375 8.734375 C 9.3125 9.773438 10.617188 10.296875 12.359375 10.296875 C 13.910156 10.296875 15.160156 9.914062 16.109375 9.15625 C 17.054688 8.394531 17.53125 7.375 17.53125 6.09375 C 17.53125 5.207031 17.335938 4.492188 16.953125 3.953125 C 16.578125 3.421875 15.90625 3.015625 14.9375 2.734375 C 13.976562 2.460938 12.644531 2.253906 10.9375 2.109375 C 8.5 1.890625 6.796875 1.519531 5.828125 1 C 4.867188 0.488281 4.390625 -0.316406 4.390625 -1.421875 C 4.390625 -2.453125 4.769531 -3.441406 5.53125 -4.390625 C 6.300781 -5.335938 7.359375 -6.085938 8.703125 -6.640625 L 9.515625 -6.125 C 9.210938 -5.789062 8.976562 -5.445312 8.8125 -5.09375 C 8.644531 -4.75 8.5625 -4.394531 8.5625 -4.03125 C 8.5625 -3.601562 8.664062 -3.273438 8.875 -3.046875 C 9.09375 -2.816406 9.53125 -2.628906 10.1875 -2.484375 C 10.84375 -2.347656 11.828125 -2.222656 13.140625 -2.109375 C 16.304688 -1.828125 18.644531 -1.164062 20.15625 -0.125 C 21.664062 0.90625 22.421875 2.410156 22.421875 4.390625 C 22.421875 5.972656 21.960938 7.367188 21.046875 8.578125 C 20.128906 9.785156 18.835938 10.71875 17.171875 11.375 C 15.515625 12.03125 13.546875 12.359375 11.265625 12.359375 Z M 10.484375 -5.40625 C 7.859375 -5.40625 5.78125 -6.066406 4.25 -7.390625 C 2.726562 -8.710938 1.96875 -10.503906 1.96875 -12.765625 C 1.96875 -14.410156 2.382812 -15.863281 3.21875 -17.125 C 4.0625 -18.394531 5.210938 -19.378906 6.671875 -20.078125 C 8.140625 -20.785156 9.851562 -21.140625 11.8125 -21.140625 C 13.601562 -21.140625 15.15625 -20.828125 16.46875 -20.203125 C 17.78125 -19.578125 18.800781 -18.695312 19.53125 -17.5625 C 20.269531 -16.4375 20.640625 -15.128906 20.640625 -13.640625 C 20.640625 -12.023438 20.210938 -10.601562 19.359375 -9.375 C 18.503906 -8.15625 17.3125 -7.1875 15.78125 -6.46875 C 14.257812 -5.757812 12.492188 -5.40625 10.484375 -5.40625 Z M 11.390625 -7.59375 C 12.523438 -7.59375 13.421875 -8.066406 14.078125 -9.015625 C 14.734375 -9.960938 15.0625 -11.257812 15.0625 -12.90625 C 15.0625 -14.832031 14.722656 -16.320312 14.046875 -17.375 C 13.378906 -18.425781 12.390625 -18.953125 11.078125 -18.953125 C 10.003906 -18.953125 9.15625 -18.476562 8.53125 -17.53125 C 7.90625 -16.582031 7.59375 -15.269531 7.59375 -13.59375 C 7.59375 -11.613281 7.910156 -10.117188 8.546875 -9.109375 C 9.191406 -8.097656 10.140625 -7.59375 11.390625 -7.59375 Z M 20.359375 -18.125 C 19.929688 -18.125 19.410156 -18.144531 18.796875 -18.1875 C 18.191406 -18.238281 17.609375 -18.304688 17.046875 -18.390625 C 16.484375 -18.484375 16.019531 -18.59375 15.65625 -18.71875 L 15.234375 -19.671875 L 22.375 -22.0625 C 22.5625 -21.75 22.710938 -21.394531 22.828125 -21 C 22.953125 -20.601562 23.015625 -20.253906 23.015625 -19.953125 C 23.015625 -18.734375 22.128906 -18.125 20.359375 -18.125 Z M 20.359375 -18.125 "/></g></g></g><g fill="#000000" fill-opacity="1"><g transform="translate(245.614927, 61.559312)"><g/></g></g><g fill="#000000" fill-opacity="1"><g transform="translate(255.636669, 61.559312)"><g><path d="M 10.0625 0.546875 C 7.5625 0.546875 5.523438 0.078125 3.953125 -0.859375 C 2.390625 -1.804688 1.609375 -2.984375 1.609375 -4.390625 C 1.609375 -5.179688 1.859375 -5.796875 2.359375 -6.234375 C 2.859375 -6.679688 3.503906 -6.90625 4.296875 -6.90625 C 5.242188 -6.90625 6.023438 -6.644531 6.640625 -6.125 C 6.640625 -4.539062 6.953125 -3.367188 7.578125 -2.609375 C 8.203125 -1.847656 9.15625 -1.46875 10.4375 -1.46875 C 11.53125 -1.46875 12.394531 -1.734375 13.03125 -2.265625 C 13.675781 -2.796875 14 -3.519531 14 -4.4375 C 14 -5.195312 13.769531 -5.8125 13.3125 -6.28125 C 12.851562 -6.757812 12.265625 -7.160156 11.546875 -7.484375 C 10.835938 -7.804688 10.054688 -8.117188 9.203125 -8.421875 C 8.160156 -8.785156 7.128906 -9.21875 6.109375 -9.71875 C 5.085938 -10.226562 4.234375 -10.898438 3.546875 -11.734375 C 2.859375 -12.578125 2.515625 -13.65625 2.515625 -14.96875 C 2.515625 -16.851562 3.273438 -18.351562 4.796875 -19.46875 C 6.328125 -20.582031 8.421875 -21.140625 11.078125 -21.140625 C 12.566406 -21.140625 13.882812 -20.960938 15.03125 -20.609375 C 16.175781 -20.265625 17.078125 -19.769531 17.734375 -19.125 C 18.390625 -18.488281 18.71875 -17.757812 18.71875 -16.9375 C 18.71875 -16.195312 18.460938 -15.613281 17.953125 -15.1875 C 17.453125 -14.757812 16.804688 -14.546875 16.015625 -14.546875 C 15.253906 -14.546875 14.597656 -14.789062 14.046875 -15.28125 C 14.046875 -16.5 13.738281 -17.441406 13.125 -18.109375 C 12.519531 -18.785156 11.65625 -19.125 10.53125 -19.125 C 9.613281 -19.125 8.882812 -18.910156 8.34375 -18.484375 C 7.8125 -18.054688 7.546875 -17.476562 7.546875 -16.75 C 7.546875 -16.082031 7.757812 -15.523438 8.1875 -15.078125 C 8.613281 -14.640625 9.1875 -14.273438 9.90625 -13.984375 C 10.625 -13.691406 11.378906 -13.394531 12.171875 -13.09375 C 13.296875 -12.695312 14.414062 -12.238281 15.53125 -11.71875 C 16.644531 -11.195312 17.566406 -10.507812 18.296875 -9.65625 C 19.035156 -8.800781 19.40625 -7.65625 19.40625 -6.21875 C 19.40625 -4.820312 19.019531 -3.617188 18.25 -2.609375 C 17.488281 -1.597656 16.40625 -0.816406 15 -0.265625 C 13.601562 0.273438 11.957031 0.546875 10.0625 0.546875 Z M 10.0625 0.546875 "/></g></g></g><g fill="#000000" fill-opacity="1"><g transform="translate(276.641173, 61.559312)"><g><path d="M 9.15625 0.546875 C 7.382812 0.546875 6.078125 -0.015625 5.234375 -1.140625 C 4.398438 -2.273438 3.984375 -3.878906 3.984375 -5.953125 L 3.984375 -24.078125 C 4.410156 -24.378906 4.941406 -24.664062 5.578125 -24.9375 C 6.222656 -25.21875 6.910156 -25.457031 7.640625 -25.65625 C 8.367188 -25.851562 9.070312 -25.984375 9.75 -26.046875 L 9.75 -6.765625 C 9.75 -5.609375 9.9375 -4.75 10.3125 -4.1875 C 10.695312 -3.625 11.347656 -3.34375 12.265625 -3.34375 C 12.847656 -3.34375 13.472656 -3.457031 14.140625 -3.6875 C 14.804688 -3.914062 15.476562 -4.273438 16.15625 -4.765625 L 17.03125 -3.109375 C 16.632812 -2.535156 16.019531 -1.960938 15.1875 -1.390625 C 14.363281 -0.828125 13.429688 -0.363281 12.390625 0 C 11.359375 0.363281 10.28125 0.546875 9.15625 0.546875 Z M 14.6875 -17.15625 L 1 -17.53125 C 1 -18.101562 1.066406 -18.65625 1.203125 -19.1875 C 1.347656 -19.726562 1.539062 -20.09375 1.78125 -20.28125 L 15.75 -20.953125 C 15.832031 -20.773438 15.890625 -20.59375 15.921875 -20.40625 C 15.953125 -20.226562 15.96875 -20.046875 15.96875 -19.859375 C 15.96875 -19.160156 15.859375 -18.570312 15.640625 -18.09375 C 15.429688 -17.625 15.113281 -17.3125 14.6875 -17.15625 Z M 14.6875 -17.15625 "/></g></g></g><g fill="#000000" fill-opacity="1"><g transform="translate(293.206825, 61.559312)"><g><path d="M 6.5 0.546875 C 5.0625 0.546875 3.882812 0.113281 2.96875 -0.75 C 2.0625 -1.625 1.609375 -2.765625 1.609375 -4.171875 C 1.609375 -5.878906 2.175781 -7.300781 3.3125 -8.4375 C 4.457031 -9.582031 6.144531 -10.398438 8.375 -10.890625 L 14.421875 -12.3125 L 13.828125 -11.625 L 13.828125 -14.640625 C 13.828125 -16.203125 13.601562 -17.320312 13.15625 -18 C 12.71875 -18.6875 11.992188 -19.03125 10.984375 -19.03125 C 9.796875 -19.03125 8.878906 -18.632812 8.234375 -17.84375 C 7.597656 -17.050781 7.28125 -15.863281 7.28125 -14.28125 C 7.0625 -14.0625 6.757812 -13.882812 6.375 -13.75 C 6 -13.613281 5.582031 -13.546875 5.125 -13.546875 C 4.363281 -13.546875 3.769531 -13.742188 3.34375 -14.140625 C 2.914062 -14.535156 2.703125 -15.070312 2.703125 -15.75 C 2.703125 -16.78125 3.097656 -17.695312 3.890625 -18.5 C 4.679688 -19.3125 5.769531 -19.953125 7.15625 -20.421875 C 8.550781 -20.898438 10.101562 -21.140625 11.8125 -21.140625 C 14.40625 -21.140625 16.359375 -20.546875 17.671875 -19.359375 C 18.984375 -18.171875 19.640625 -16.367188 19.640625 -13.953125 L 19.640625 -4.296875 C 19.640625 -3.753906 19.738281 -3.351562 19.9375 -3.09375 C 20.132812 -2.832031 20.472656 -2.703125 20.953125 -2.703125 C 21.265625 -2.703125 21.59375 -2.769531 21.9375 -2.90625 C 22.289062 -3.039062 22.578125 -3.1875 22.796875 -3.34375 L 23.25 -1.5625 C 22.601562 -0.945312 21.800781 -0.441406 20.84375 -0.046875 C 19.882812 0.347656 18.976562 0.546875 18.125 0.546875 C 16.90625 0.546875 15.941406 0.203125 15.234375 -0.484375 C 14.535156 -1.171875 14.1875 -2.109375 14.1875 -3.296875 L 13.90625 -3.296875 C 13 -2.109375 11.875 -1.171875 10.53125 -0.484375 C 9.1875 0.203125 7.84375 0.546875 6.5 0.546875 Z M 9.375 -2.75 C 10.226562 -2.75 11.117188 -3.003906 12.046875 -3.515625 C 12.984375 -4.035156 13.757812 -4.691406 14.375 -5.484375 L 13.90625 -4.34375 L 13.90625 -10.34375 L 14.640625 -10.25 L 9.984375 -9.109375 C 8.941406 -8.890625 8.140625 -8.46875 7.578125 -7.84375 C 7.015625 -7.21875 6.734375 -6.460938 6.734375 -5.578125 C 6.734375 -4.722656 6.972656 -4.035156 7.453125 -3.515625 C 7.941406 -3.003906 8.582031 -2.75 9.375 -2.75 Z M 9.375 -2.75 "/></g></g></g><g fill="#000000" fill-opacity="1"><g transform="translate(317.094304, 61.559312)"><g><path d="M 3.4375 12.359375 C 2.457031 12.359375 1.660156 12.113281 1.046875 11.625 C 0.441406 11.132812 0.140625 10.492188 0.140625 9.703125 C 0.140625 9.460938 0.179688 9.15625 0.265625 8.78125 C 0.359375 8.414062 0.5 8.082031 0.6875 7.78125 L 1.5625 7.78125 C 3.019531 7.78125 4.222656 7.648438 5.171875 7.390625 C 6.117188 7.128906 6.910156 6.703125 7.546875 6.109375 C 8.191406 5.515625 8.765625 4.691406 9.265625 3.640625 C 9.765625 2.585938 10.273438 1.28125 10.796875 -0.28125 L 10.65625 2.375 L 2.65625 -17.625 L 3.703125 -16.84375 L 0.234375 -17.75 C 0.234375 -18.332031 0.300781 -18.804688 0.4375 -19.171875 C 0.570312 -19.535156 0.789062 -19.90625 1.09375 -20.28125 L 11.265625 -20.28125 C 11.265625 -18.8125 11.019531 -17.984375 10.53125 -17.796875 L 7.6875 -16.9375 L 8.46875 -17.890625 L 13.90625 -4.171875 L 12.359375 -4.125 L 17.671875 -17.75 L 17.984375 -16.9375 L 14.96875 -17.75 C 14.96875 -18.519531 15.019531 -19.070312 15.125 -19.40625 C 15.226562 -19.738281 15.453125 -20.03125 15.796875 -20.28125 L 23.25 -20.28125 C 23.25 -19.539062 23.1875 -18.988281 23.0625 -18.625 C 22.945312 -18.257812 22.765625 -18.03125 22.515625 -17.9375 L 19.90625 -16.984375 L 20.921875 -17.890625 L 13.640625 0.875 C 12.296875 4.351562 10.738281 7.132812 8.96875 9.21875 C 7.195312 11.3125 5.351562 12.359375 3.4375 12.359375 Z M 3.4375 12.359375 "/></g></g></g><g fill="#000000" fill-opacity="1"><g transform="translate(340.47842, 61.559312)"><g><path d="M 10.0625 0.546875 C 7.5625 0.546875 5.523438 0.078125 3.953125 -0.859375 C 2.390625 -1.804688 1.609375 -2.984375 1.609375 -4.390625 C 1.609375 -5.179688 1.859375 -5.796875 2.359375 -6.234375 C 2.859375 -6.679688 3.503906 -6.90625 4.296875 -6.90625 C 5.242188 -6.90625 6.023438 -6.644531 6.640625 -6.125 C 6.640625 -4.539062 6.953125 -3.367188 7.578125 -2.609375 C 8.203125 -1.847656 9.15625 -1.46875 10.4375 -1.46875 C 11.53125 -1.46875 12.394531 -1.734375 13.03125 -2.265625 C 13.675781 -2.796875 14 -3.519531 14 -4.4375 C 14 -5.195312 13.769531 -5.8125 13.3125 -6.28125 C 12.851562 -6.757812 12.265625 -7.160156 11.546875 -7.484375 C 10.835938 -7.804688 10.054688 -8.117188 9.203125 -8.421875 C 8.160156 -8.785156 7.128906 -9.21875 6.109375 -9.71875 C 5.085938 -10.226562 4.234375 -10.898438 3.546875 -11.734375 C 2.859375 -12.578125 2.515625 -13.65625 2.515625 -14.96875 C 2.515625 -16.851562 3.273438 -18.351562 4.796875 -19.46875 C 6.328125 -20.582031 8.421875 -21.140625 11.078125 -21.140625 C 12.566406 -21.140625 13.882812 -20.960938 15.03125 -20.609375 C 16.175781 -20.265625 17.078125 -19.769531 17.734375 -19.125 C 18.390625 -18.488281 18.71875 -17.757812 18.71875 -16.9375 C 18.71875 -16.195312 18.460938 -15.613281 17.953125 -15.1875 C 17.453125 -14.757812 16.804688 -14.546875 16.015625 -14.546875 C 15.253906 -14.546875 14.597656 -14.789062 14.046875 -15.28125 C 14.046875 -16.5 13.738281 -17.441406 13.125 -18.109375 C 12.519531 -18.785156 11.65625 -19.125 10.53125 -19.125 C 9.613281 -19.125 8.882812 -18.910156 8.34375 -18.484375 C 7.8125 -18.054688 7.546875 -17.476562 7.546875 -16.75 C 7.546875 -16.082031 7.757812 -15.523438 8.1875 -15.078125 C 8.613281 -14.640625 9.1875 -14.273438 9.90625 -13.984375 C 10.625 -13.691406 11.378906 -13.394531 12.171875 -13.09375 C 13.296875 -12.695312 14.414062 -12.238281 15.53125 -11.71875 C 16.644531 -11.195312 17.566406 -10.507812 18.296875 -9.65625 C 19.035156 -8.800781 19.40625 -7.65625 19.40625 -6.21875 C 19.40625 -4.820312 19.019531 -3.617188 18.25 -2.609375 C 17.488281 -1.597656 16.40625 -0.816406 15 -0.265625 C 13.601562 0.273438 11.957031 0.546875 10.0625 0.546875 Z M 10.0625 0.546875 "/></g></g></g><g fill="#000000" fill-opacity="1"><g transform="translate(361.482902, 61.559312)"><g><path d="M 2.203125 7 C 2.015625 6.90625 1.820312 6.726562 1.625 6.46875 C 1.425781 6.21875 1.328125 5.878906 1.328125 5.453125 C 2.640625 5.046875 3.546875 4.566406 4.046875 4.015625 C 4.554688 3.472656 4.8125 2.894531 4.8125 2.28125 C 4.8125 1.613281 4.648438 1.101562 4.328125 0.75 C 4.003906 0.40625 3.617188 0.101562 3.171875 -0.15625 C 2.734375 -0.414062 2.351562 -0.734375 2.03125 -1.109375 C 1.71875 -1.492188 1.5625 -2.054688 1.5625 -2.796875 C 1.5625 -3.617188 1.859375 -4.296875 2.453125 -4.828125 C 3.046875 -5.359375 3.738281 -5.625 4.53125 -5.625 C 5.71875 -5.625 6.644531 -5.164062 7.3125 -4.25 C 7.988281 -3.34375 8.328125 -2.15625 8.328125 -0.6875 C 8.328125 0.6875 8.035156 1.921875 7.453125 3.015625 C 6.878906 4.117188 6.125 5.003906 5.1875 5.671875 C 4.257812 6.347656 3.265625 6.789062 2.203125 7 Z M 2.203125 7 "/></g></g></g><g fill="#000000" fill-opacity="1"><g transform="translate(371.550437, 61.559312)"><g/></g></g><g fill="#000000" fill-opacity="1"><g transform="translate(381.572201, 61.559312)"><g><path d="M 11.90625 0.546875 C 10.53125 0.546875 9.109375 0.394531 7.640625 0.09375 C 6.179688 -0.207031 4.820312 -0.648438 3.5625 -1.234375 L 3.5625 -30.703125 L 4.078125 -30.015625 L 1.46875 -30.703125 C 0.945312 -30.828125 0.6875 -31.578125 0.6875 -32.953125 C 2.175781 -33.191406 3.328125 -33.359375 4.140625 -33.453125 C 4.953125 -33.546875 5.613281 -33.59375 6.125 -33.59375 C 7.132812 -33.59375 7.867188 -33.382812 8.328125 -32.96875 C 8.785156 -32.5625 9.015625 -31.882812 9.015625 -30.9375 L 9.015625 -16.4375 L 8.828125 -16.84375 L 9.375 -16.84375 C 10.226562 -18.15625 11.363281 -19.195312 12.78125 -19.96875 C 14.207031 -20.75 15.648438 -21.140625 17.109375 -21.140625 C 18.640625 -21.140625 19.976562 -20.734375 21.125 -19.921875 C 22.269531 -19.117188 23.15625 -17.984375 23.78125 -16.515625 C 24.40625 -15.054688 24.71875 -13.332031 24.71875 -11.34375 C 24.71875 -8.96875 24.195312 -6.882812 23.15625 -5.09375 C 22.113281 -3.3125 20.640625 -1.925781 18.734375 -0.9375 C 16.828125 0.0507812 14.550781 0.546875 11.90625 0.546875 Z M 12.859375 -2.015625 C 14.785156 -2.015625 16.210938 -2.695312 17.140625 -4.0625 C 18.066406 -5.4375 18.53125 -7.53125 18.53125 -10.34375 C 18.53125 -12.78125 18.171875 -14.585938 17.453125 -15.765625 C 16.742188 -16.941406 15.65625 -17.53125 14.1875 -17.53125 C 13.363281 -17.53125 12.625 -17.351562 11.96875 -17 C 11.3125 -16.644531 10.710938 -16.1875 10.171875 -15.625 C 9.640625 -15.0625 9.132812 -14.445312 8.65625 -13.78125 L 9.25 -15.109375 L 9.25 -2.65625 L 8.65625 -3.703125 C 9.351562 -3.128906 10.035156 -2.703125 10.703125 -2.421875 C 11.378906 -2.148438 12.097656 -2.015625 12.859375 -2.015625 Z M 12.859375 -2.015625 "/></g></g></g><g fill="#000000" fill-opacity="1"><g transform="translate(407.930787, 61.559312)"><g><path d="M 11.71875 0.546875 C 9.707031 0.546875 7.9375 0.117188 6.40625 -0.734375 C 4.882812 -1.585938 3.703125 -2.773438 2.859375 -4.296875 C 2.023438 -5.828125 1.609375 -7.597656 1.609375 -9.609375 C 1.609375 -11.804688 2.09375 -13.773438 3.0625 -15.515625 C 4.039062 -17.253906 5.359375 -18.625 7.015625 -19.625 C 8.679688 -20.632812 10.535156 -21.140625 12.578125 -21.140625 C 14.347656 -21.140625 15.890625 -20.765625 17.203125 -20.015625 C 18.515625 -19.273438 19.53125 -18.238281 20.25 -16.90625 C 20.96875 -15.582031 21.328125 -14.019531 21.328125 -12.21875 C 21.328125 -11.457031 21.21875 -10.960938 21 -10.734375 C 20.789062 -10.503906 20.457031 -10.390625 20 -10.390625 L 5.71875 -10.390625 L 5.71875 -12.546875 L 16.515625 -12.8125 L 16.015625 -12.125 C 16.046875 -13.59375 15.90625 -14.835938 15.59375 -15.859375 C 15.289062 -16.878906 14.847656 -17.65625 14.265625 -18.1875 C 13.691406 -18.726562 12.992188 -19 12.171875 -19 C 10.890625 -19 9.835938 -18.316406 9.015625 -16.953125 C 8.191406 -15.597656 7.78125 -13.710938 7.78125 -11.296875 C 7.78125 -9.503906 8.039062 -7.953125 8.5625 -6.640625 C 9.082031 -5.328125 9.84375 -4.328125 10.84375 -3.640625 C 11.851562 -2.953125 13.085938 -2.609375 14.546875 -2.609375 C 15.679688 -2.609375 16.75 -2.851562 17.75 -3.34375 C 18.757812 -3.832031 19.738281 -4.535156 20.6875 -5.453125 L 21.421875 -3.796875 C 20.710938 -2.941406 19.835938 -2.1875 18.796875 -1.53125 C 17.765625 -0.875 16.644531 -0.363281 15.4375 0 C 14.238281 0.363281 13 0.546875 11.71875 0.546875 Z M 11.71875 0.546875 "/></g></g></g><g fill="#000000" fill-opacity="1"><g transform="translate(431.040302, 61.559312)"><g><path d="M 3.4375 12.359375 C 2.457031 12.359375 1.660156 12.113281 1.046875 11.625 C 0.441406 11.132812 0.140625 10.492188 0.140625 9.703125 C 0.140625 9.460938 0.179688 9.15625 0.265625 8.78125 C 0.359375 8.414062 0.5 8.082031 0.6875 7.78125 L 1.5625 7.78125 C 3.019531 7.78125 4.222656 7.648438 5.171875 7.390625 C 6.117188 7.128906 6.910156 6.703125 7.546875 6.109375 C 8.191406 5.515625 8.765625 4.691406 9.265625 3.640625 C 9.765625 2.585938 10.273438 1.28125 10.796875 -0.28125 L 10.65625 2.375 L 2.65625 -17.625 L 3.703125 -16.84375 L 0.234375 -17.75 C 0.234375 -18.332031 0.300781 -18.804688 0.4375 -19.171875 C 0.570312 -19.535156 0.789062 -19.90625 1.09375 -20.28125 L 11.265625 -20.28125 C 11.265625 -18.8125 11.019531 -17.984375 10.53125 -17.796875 L 7.6875 -16.9375 L 8.46875 -17.890625 L 13.90625 -4.171875 L 12.359375 -4.125 L 17.671875 -17.75 L 17.984375 -16.9375 L 14.96875 -17.75 C 14.96875 -18.519531 15.019531 -19.070312 15.125 -19.40625 C 15.226562 -19.738281 15.453125 -20.03125 15.796875 -20.28125 L 23.25 -20.28125 C 23.25 -19.539062 23.1875 -18.988281 23.0625 -18.625 C 22.945312 -18.257812 22.765625 -18.03125 22.515625 -17.9375 L 19.90625 -16.984375 L 20.921875 -17.890625 L 13.640625 0.875 C 12.296875 4.351562 10.738281 7.132812 8.96875 9.21875 C 7.195312 11.3125 5.351562 12.359375 3.4375 12.359375 Z M 3.4375 12.359375 "/></g></g></g><g fill="#000000" fill-opacity="1"><g transform="translate(454.424442, 61.559312)"><g><path d="M 11.625 0.546875 C 8.507812 0.546875 6.0625 -0.328125 4.28125 -2.078125 C 2.5 -3.835938 1.609375 -6.226562 1.609375 -9.25 C 1.609375 -11.5625 2.117188 -13.609375 3.140625 -15.390625 C 4.160156 -17.179688 5.5625 -18.585938 7.34375 -19.609375 C 9.125 -20.628906 11.191406 -21.140625 13.546875 -21.140625 C 15.617188 -21.140625 17.414062 -20.734375 18.9375 -19.921875 C 20.46875 -19.117188 21.648438 -17.96875 22.484375 -16.46875 C 23.328125 -14.976562 23.75 -13.226562 23.75 -11.21875 C 23.75 -8.925781 23.238281 -6.894531 22.21875 -5.125 C 21.195312 -3.351562 19.769531 -1.960938 17.9375 -0.953125 C 16.101562 0.046875 14 0.546875 11.625 0.546875 Z M 12.671875 -1.609375 C 14.265625 -1.609375 15.492188 -2.347656 16.359375 -3.828125 C 17.234375 -5.304688 17.671875 -7.398438 17.671875 -10.109375 C 17.671875 -12.921875 17.234375 -15.101562 16.359375 -16.65625 C 15.492188 -18.21875 14.265625 -19 12.671875 -19 C 11.085938 -19 9.867188 -18.253906 9.015625 -16.765625 C 8.160156 -15.285156 7.734375 -13.160156 7.734375 -10.390625 C 7.734375 -7.546875 8.148438 -5.367188 8.984375 -3.859375 C 9.828125 -2.359375 11.054688 -1.609375 12.671875 -1.609375 Z M 12.671875 -1.609375 "/></g></g></g><g fill="#000000" fill-opacity="1"><g transform="translate(479.822028, 61.559312)"><g><path d="M 1.875 0 C 1.875 -1.40625 2.117188 -2.179688 2.609375 -2.328125 L 5.21875 -3.390625 L 4.71875 -2.609375 L 4.71875 -17.75 L 5.265625 -17.078125 L 2.5625 -17.75 C 2.101562 -17.875 1.875 -18.625 1.875 -20 C 3.3125 -20.238281 4.429688 -20.40625 5.234375 -20.5 C 6.046875 -20.59375 6.726562 -20.640625 7.28125 -20.640625 C 8.3125 -20.640625 9.046875 -20.410156 9.484375 -19.953125 C 9.929688 -19.492188 10.15625 -18.757812 10.15625 -17.75 L 10.15625 -16.65625 L 9.9375 -16.796875 L 10.484375 -16.796875 C 11.828125 -18.140625 13.273438 -19.195312 14.828125 -19.96875 C 16.378906 -20.75 17.859375 -21.140625 19.265625 -21.140625 C 22.773438 -21.140625 24.53125 -18.757812 24.53125 -14 L 24.53125 -2.84375 L 24.03125 -3.484375 L 27.375 -2.515625 C 27.375 -1.929688 27.316406 -1.460938 27.203125 -1.109375 C 27.097656 -0.765625 26.878906 -0.394531 26.546875 0 L 16.515625 0 C 16.515625 -1.40625 16.757812 -2.179688 17.25 -2.328125 L 19.21875 -3.0625 L 18.765625 -2.28125 L 18.765625 -13.3125 C 18.765625 -15.90625 17.800781 -17.203125 15.875 -17.203125 C 15.082031 -17.203125 14.3125 -17.039062 13.5625 -16.71875 C 12.820312 -16.40625 12.160156 -16.019531 11.578125 -15.5625 C 10.992188 -15.101562 10.550781 -14.660156 10.25 -14.234375 L 10.484375 -15.015625 L 10.484375 -2.5625 L 9.9375 -3.203125 L 12.765625 -2.515625 C 12.765625 -1.929688 12.703125 -1.460938 12.578125 -1.109375 C 12.460938 -0.765625 12.238281 -0.394531 11.90625 0 Z M 1.875 0 "/></g></g></g><g fill="#000000" fill-opacity="1"><g transform="translate(508.46873, 61.559312)"><g><path d="M 9.515625 0.546875 C 7.960938 0.546875 6.582031 0.144531 5.375 -0.65625 C 4.164062 -1.46875 3.234375 -2.613281 2.578125 -4.09375 C 1.929688 -5.570312 1.609375 -7.289062 1.609375 -9.25 C 1.609375 -11.59375 2.054688 -13.65625 2.953125 -15.4375 C 3.847656 -17.226562 5.085938 -18.625 6.671875 -19.625 C 8.265625 -20.632812 10.097656 -21.140625 12.171875 -21.140625 C 13.054688 -21.140625 13.957031 -21.046875 14.875 -20.859375 C 15.789062 -20.679688 16.691406 -20.410156 17.578125 -20.046875 L 17.15625 -19.5 L 17.15625 -30.75 L 17.71875 -30.0625 L 14.734375 -30.703125 C 14.273438 -30.796875 14.046875 -31.546875 14.046875 -32.953125 C 15.453125 -33.191406 16.582031 -33.359375 17.4375 -33.453125 C 18.289062 -33.546875 18.992188 -33.59375 19.546875 -33.59375 C 20.703125 -33.59375 21.550781 -33.363281 22.09375 -32.90625 C 22.644531 -32.445312 22.921875 -31.695312 22.921875 -30.65625 L 22.921875 -4.296875 C 22.921875 -3.753906 23.023438 -3.351562 23.234375 -3.09375 C 23.453125 -2.832031 23.789062 -2.703125 24.25 -2.703125 C 24.59375 -2.703125 24.9375 -2.757812 25.28125 -2.875 C 25.632812 -3 25.90625 -3.140625 26.09375 -3.296875 L 26.546875 -1.5625 C 25.867188 -0.914062 25.054688 -0.398438 24.109375 -0.015625 C 23.171875 0.359375 22.242188 0.546875 21.328125 0.546875 C 20.140625 0.546875 19.207031 0.195312 18.53125 -0.5 C 17.863281 -1.207031 17.53125 -2.171875 17.53125 -3.390625 L 17.203125 -3.390625 C 16.441406 -2.253906 15.378906 -1.3125 14.015625 -0.5625 C 12.660156 0.175781 11.160156 0.546875 9.515625 0.546875 Z M 12.578125 -3.015625 C 13.410156 -3.015625 14.140625 -3.160156 14.765625 -3.453125 C 15.390625 -3.742188 15.953125 -4.140625 16.453125 -4.640625 C 16.953125 -5.148438 17.398438 -5.675781 17.796875 -6.21875 L 17.25 -4.984375 L 17.25 -18.03125 L 17.796875 -16.703125 C 17.222656 -17.316406 16.582031 -17.789062 15.875 -18.125 C 15.175781 -18.457031 14.335938 -18.625 13.359375 -18.625 C 11.585938 -18.625 10.207031 -17.898438 9.21875 -16.453125 C 8.226562 -15.003906 7.734375 -12.953125 7.734375 -10.296875 C 7.734375 -7.921875 8.144531 -6.113281 8.96875 -4.875 C 9.789062 -3.632812 10.992188 -3.015625 12.578125 -3.015625 Z M 12.578125 -3.015625 "/></g></g></g><g fill="#000000" fill-opacity="1"><g transform="translate(535.879811, 61.559312)"><g/></g></g><g fill="#000000" fill-opacity="1"><g transform="translate(545.901552, 61.559312)"><g><path d="M 1.375 0 C 1.375 -1.40625 1.617188 -2.179688 2.109375 -2.328125 L 4.71875 -3.390625 L 4.203125 -2.609375 L 4.203125 -30.703125 L 4.71875 -30.015625 L 2.0625 -30.703125 C 1.601562 -30.828125 1.375 -31.578125 1.375 -32.953125 C 2.8125 -33.191406 3.929688 -33.359375 4.734375 -33.453125 C 5.546875 -33.546875 6.210938 -33.59375 6.734375 -33.59375 C 7.765625 -33.59375 8.507812 -33.363281 8.96875 -32.90625 C 9.425781 -32.445312 9.65625 -31.710938 9.65625 -30.703125 L 9.65625 -16.390625 L 9.34375 -16.796875 L 9.984375 -16.796875 C 11.285156 -18.140625 12.722656 -19.195312 14.296875 -19.96875 C 15.867188 -20.75 17.359375 -21.140625 18.765625 -21.140625 C 22.273438 -21.140625 24.03125 -18.757812 24.03125 -14 L 24.03125 -2.84375 L 23.53125 -3.484375 L 26.859375 -2.515625 C 26.859375 -1.929688 26.804688 -1.460938 26.703125 -1.109375 C 26.597656 -0.765625 26.378906 -0.394531 26.046875 0 L 15.96875 0 C 15.96875 -1.40625 16.210938 -2.179688 16.703125 -2.328125 L 18.71875 -3.0625 L 18.265625 -2.28125 L 18.265625 -13.3125 C 18.265625 -15.90625 17.300781 -17.203125 15.375 -17.203125 C 14.582031 -17.203125 13.828125 -17.050781 13.109375 -16.75 C 12.390625 -16.445312 11.75 -16.070312 11.1875 -15.625 C 10.625 -15.1875 10.175781 -14.769531 9.84375 -14.375 L 9.984375 -14.96875 L 9.984375 -2.5625 L 9.421875 -3.203125 L 12.21875 -2.515625 C 12.21875 -1.929688 12.164062 -1.460938 12.0625 -1.109375 C 11.957031 -0.765625 11.734375 -0.394531 11.390625 0 Z M 1.375 0 "/></g></g></g><g fill="#000000" fill-opacity="1"><g transform="translate(574.04487, 61.559312)"><g><path d="M 11.625 0.546875 C 8.507812 0.546875 6.0625 -0.328125 4.28125 -2.078125 C 2.5 -3.835938 1.609375 -6.226562 1.609375 -9.25 C 1.609375 -11.5625 2.117188 -13.609375 3.140625 -15.390625 C 4.160156 -17.179688 5.5625 -18.585938 7.34375 -19.609375 C 9.125 -20.628906 11.191406 -21.140625 13.546875 -21.140625 C 15.617188 -21.140625 17.414062 -20.734375 18.9375 -19.921875 C 20.46875 -19.117188 21.648438 -17.96875 22.484375 -16.46875 C 23.328125 -14.976562 23.75 -13.226562 23.75 -11.21875 C 23.75 -8.925781 23.238281 -6.894531 22.21875 -5.125 C 21.195312 -3.351562 19.769531 -1.960938 17.9375 -0.953125 C 16.101562 0.046875 14 0.546875 11.625 0.546875 Z M 12.671875 -1.609375 C 14.265625 -1.609375 15.492188 -2.347656 16.359375 -3.828125 C 17.234375 -5.304688 17.671875 -7.398438 17.671875 -10.109375 C 17.671875 -12.921875 17.234375 -15.101562 16.359375 -16.65625 C 15.492188 -18.21875 14.265625 -19 12.671875 -19 C 11.085938 -19 9.867188 -18.253906 9.015625 -16.765625 C 8.160156 -15.285156 7.734375 -13.160156 7.734375 -10.390625 C 7.734375 -7.546875 8.148438 -5.367188 8.984375 -3.859375 C 9.828125 -2.359375 11.054688 -1.609375 12.671875 -1.609375 Z M 12.671875 -1.609375 "/></g></g></g><g fill="#000000" fill-opacity="1"><g transform="translate(599.442502, 61.559312)"><g><path d="M 9.15625 0.546875 C 7.382812 0.546875 6.078125 -0.015625 5.234375 -1.140625 C 4.398438 -2.273438 3.984375 -3.878906 3.984375 -5.953125 L 3.984375 -24.078125 C 4.410156 -24.378906 4.941406 -24.664062 5.578125 -24.9375 C 6.222656 -25.21875 6.910156 -25.457031 7.640625 -25.65625 C 8.367188 -25.851562 9.070312 -25.984375 9.75 -26.046875 L 9.75 -6.765625 C 9.75 -5.609375 9.9375 -4.75 10.3125 -4.1875 C 10.695312 -3.625 11.347656 -3.34375 12.265625 -3.34375 C 12.847656 -3.34375 13.472656 -3.457031 14.140625 -3.6875 C 14.804688 -3.914062 15.476562 -4.273438 16.15625 -4.765625 L 17.03125 -3.109375 C 16.632812 -2.535156 16.019531 -1.960938 15.1875 -1.390625 C 14.363281 -0.828125 13.429688 -0.363281 12.390625 0 C 11.359375 0.363281 10.28125 0.546875 9.15625 0.546875 Z M 14.6875 -17.15625 L 1 -17.53125 C 1 -18.101562 1.066406 -18.65625 1.203125 -19.1875 C 1.347656 -19.726562 1.539062 -20.09375 1.78125 -20.28125 L 15.75 -20.953125 C 15.832031 -20.773438 15.890625 -20.59375 15.921875 -20.40625 C 15.953125 -20.226562 15.96875 -20.046875 15.96875 -19.859375 C 15.96875 -19.160156 15.859375 -18.570312 15.640625 -18.09375 C 15.429688 -17.625 15.113281 -17.3125 14.6875 -17.15625 Z M 14.6875 -17.15625 "/></g></g></g><g fill="#000000" fill-opacity="1"><g transform="translate(616.008154, 61.559312)"><g><path d="M 11.71875 0.546875 C 9.707031 0.546875 7.9375 0.117188 6.40625 -0.734375 C 4.882812 -1.585938 3.703125 -2.773438 2.859375 -4.296875 C 2.023438 -5.828125 1.609375 -7.597656 1.609375 -9.609375 C 1.609375 -11.804688 2.09375 -13.773438 3.0625 -15.515625 C 4.039062 -17.253906 5.359375 -18.625 7.015625 -19.625 C 8.679688 -20.632812 10.535156 -21.140625 12.578125 -21.140625 C 14.347656 -21.140625 15.890625 -20.765625 17.203125 -20.015625 C 18.515625 -19.273438 19.53125 -18.238281 20.25 -16.90625 C 20.96875 -15.582031 21.328125 -14.019531 21.328125 -12.21875 C 21.328125 -11.457031 21.21875 -10.960938 21 -10.734375 C 20.789062 -10.503906 20.457031 -10.390625 20 -10.390625 L 5.71875 -10.390625 L 5.71875 -12.546875 L 16.515625 -12.8125 L 16.015625 -12.125 C 16.046875 -13.59375 15.90625 -14.835938 15.59375 -15.859375 C 15.289062 -16.878906 14.847656 -17.65625 14.265625 -18.1875 C 13.691406 -18.726562 12.992188 -19 12.171875 -19 C 10.890625 -19 9.835938 -18.316406 9.015625 -16.953125 C 8.191406 -15.597656 7.78125 -13.710938 7.78125 -11.296875 C 7.78125 -9.503906 8.039062 -7.953125 8.5625 -6.640625 C 9.082031 -5.328125 9.84375 -4.328125 10.84375 -3.640625 C 11.851562 -2.953125 13.085938 -2.609375 14.546875 -2.609375 C 15.679688 -2.609375 16.75 -2.851562 17.75 -3.34375 C 18.757812 -3.832031 19.738281 -4.535156 20.6875 -5.453125 L 21.421875 -3.796875 C 20.710938 -2.941406 19.835938 -2.1875 18.796875 -1.53125 C 17.765625 -0.875 16.644531 -0.363281 15.4375 0 C 14.238281 0.363281 13 0.546875 11.71875 0.546875 Z M 11.71875 0.546875 "/></g></g></g><g fill="#000000" fill-opacity="1"><g transform="translate(639.117669, 61.559312)"><g><path d="M 1.375 0 C 1.375 -0.726562 1.429688 -1.273438 1.546875 -1.640625 C 1.671875 -2.015625 1.859375 -2.242188 2.109375 -2.328125 L 4.984375 -3.390625 L 4.484375 -2.703125 L 4.484375 -30.703125 L 5.03125 -30.015625 L 2.0625 -30.703125 C 1.601562 -30.828125 1.375 -31.578125 1.375 -32.953125 C 2.53125 -33.128906 3.601562 -33.28125 4.59375 -33.40625 C 5.59375 -33.53125 6.625 -33.59375 7.6875 -33.59375 C 9.394531 -33.59375 10.25 -32.613281 10.25 -30.65625 L 10.25 -2.84375 L 9.703125 -3.484375 L 13.6875 -2.515625 C 13.6875 -1.929688 13.625 -1.460938 13.5 -1.109375 C 13.375 -0.765625 13.144531 -0.394531 12.8125 0 Z M 1.375 0 "/></g></g></g></g></g></g></g></g></g></mask><clipPath id="e70d34e33c"><path d="M 0.707031 0 L 666.292969 0 L 666.292969 97.003906 L 0.707031 97.003906 Z M 0.707031 0 " clip-rule="nonzero"/></clipPath><clipPath id="672a5f5f3b"><rect x="0" width="667" y="0" height="98"/></clipPath><clipPath id="0cae0a101a"><rect x="0" width="667" y="0" height="98"/></clipPath></defs><g clip-path="url(#ccf73044ee)"><g transform="matrix(1, 0, 0, 1, 1, 0.000000000000016238)"><g clip-path="url(#0cae0a101a)"><g clip-path="url(#c93aa0a477)"><g mask="url(#efc9f3ccf0)"><g transform="matrix(1, 0, 0, 1, -0.000000000000000222, 0.000000000000016238)"><g clip-path="url(#672a5f5f3b)"><g clip-path="url(#e70d34e33c)"><path fill="url(#8ca43ef9b9)" d="M 0.707031 0 L 0.707031 97.003906 L 666.292969 97.003906 L 666.292969 0 Z M 0.707031 0 " fill-rule="nonzero"/></g></g></g></g></g></g></g></g></svg>